<svg width="34" height="35" viewBox="0 0 34 35" fill="none" xmlns="http://www.w3.org/2000/svg">
<g clip-path="url(#clip0_7905_1336)">
<rect width="38.5417" height="37.5" rx="17" transform="matrix(0.860729 0.509063 -0.490991 0.871164 8.58569 -10.4775)" fill="#FF8F0B"/>
<path d="M19.1094 12.457L20.5713 9.30405C20.6243 9.18971 20.6328 9.05985 20.595 8.93976C20.5573 8.81967 20.476 8.71794 20.3671 8.65439L20.3453 8.64163C20.229 8.57378 20.0904 8.5548 19.9599 8.58886C19.8295 8.62293 19.7178 8.70726 19.6496 8.82329L16.4871 14.2032C16.4284 14.3307 16.3221 14.4303 16.1908 14.4809C16.0596 14.5314 15.9138 14.5289 15.7845 14.4738C15.6731 14.3884 15.5995 14.263 15.5796 14.1242C15.5596 13.9855 15.5948 13.8443 15.6777 13.7309L18.8402 8.35099C18.908 8.23498 18.9269 8.09697 18.8928 7.96722C18.8587 7.83746 18.7743 7.72656 18.6583 7.65883C18.5422 7.59109 18.4038 7.57206 18.2736 7.6059C18.1433 7.63973 18.0317 7.72368 17.9633 7.83933L14.8008 13.2193C14.7421 13.3468 14.6358 13.4464 14.5045 13.4969C14.3733 13.5475 14.2275 13.5449 14.0982 13.4898C13.9868 13.4045 13.9132 13.279 13.8933 13.1403C13.8733 13.0015 13.9085 12.8604 13.9914 12.747L17.1539 7.36705C17.2217 7.25103 17.2406 7.11302 17.2065 6.98327C17.1724 6.85351 17.0881 6.74261 16.972 6.67488C16.8559 6.60715 16.7176 6.58811 16.5873 6.62195C16.457 6.65578 16.3454 6.73973 16.277 6.85538L13.1145 12.2353C13.0558 12.3628 12.9495 12.4624 12.8182 12.513C12.687 12.5635 12.5412 12.561 12.4119 12.5059C12.3005 12.4205 12.2269 12.2951 12.207 12.1563C12.187 12.0175 12.2222 11.8764 12.3051 11.763L15.4676 6.38308C15.5014 6.32563 15.5235 6.26212 15.5327 6.19618C15.5418 6.13025 15.5379 6.06317 15.5211 5.99879C15.5042 5.93441 15.4748 5.87398 15.4346 5.82096C15.3943 5.76793 15.3439 5.72335 15.2864 5.68975L15.2645 5.67698C15.1556 5.61344 15.0268 5.59262 14.9032 5.61858C14.7796 5.64453 14.6701 5.71541 14.5959 5.81741L12.551 8.63012C10.4187 11.5628 9.88211 12.9506 10.3637 14.8356C10.5475 15.4167 10.6046 16.0305 10.5312 16.6357C10.4579 17.241 10.2557 17.8238 9.93838 18.3453C7.45674 22.4569 3.61589 26.2785 1.49647 31.526C0.935559 32.9148 1.22121 33.6363 1.99126 34.0856C2.76131 34.5349 3.53118 34.432 4.474 33.2634C8.03085 28.8547 9.49738 23.6476 11.8827 19.4798C12.1839 18.949 12.5953 18.4882 13.0893 18.1284C13.5832 17.7685 14.1484 17.5179 14.7471 17.3933C16.6328 16.8896 17.5852 15.7445 19.1094 12.457Z" fill="white"/>
<path d="M14.9501 20.3896C14.484 21.1929 14.1632 22.0715 14.0025 22.9852C13.832 23.8712 13.9408 24.7878 14.3141 25.6088C14.6874 26.4299 15.3067 27.1152 16.087 27.5705C16.8673 28.0257 17.7701 28.2287 18.6715 28.1514C19.5729 28.0741 20.4285 27.7203 21.1207 27.1387C21.8419 26.552 22.4542 25.8435 22.9294 25.0455C24.6031 22.1983 23.9635 20.9829 23.6601 19.5592C23.4302 18.48 23.3368 17.3654 24.0904 16.1165C26.5292 12.0748 30.2926 8.3115 32.383 3.1578C32.9371 1.79169 32.6608 1.08775 31.9116 0.650587C31.1623 0.213394 30.4109 0.317649 29.486 1.46743C25.9971 5.80508 24.5437 10.9163 22.1986 15.0127C21.474 16.2784 20.4526 16.7426 19.3954 17.0707C18.0006 17.5036 16.6238 17.5423 14.9501 20.3896Z" fill="white"/>
</g>
<rect x="0.184869" y="0.690114" width="24" height="24" rx="6.5" transform="matrix(0.860729 0.509063 -0.490991 0.871164 12.6394 0.241872)" stroke="#FF8F0B"/>
<defs>
<clipPath id="clip0_7905_1336">
<rect width="25" height="25" rx="7" transform="matrix(0.860729 0.509063 -0.490991 0.871164 12.2748 0.24707)" fill="white"/>
</clipPath>
</defs>
</svg>
